# xmcd
#
# Track frame offsets:
#	150
#	27420
#	40280
#	56656
#	75357
#	94751
#	117039
#	129986
#	152762
#	176971
#	195036
#	218770
#	254648
#	266131
#
# Disc length: 3757 seconds
#
# Revision: 0
# Processed by: cddbd v1.5PL3 Copyright (c) Steve Scherf et al.
# Submitted via: dBpowerAMP V4.0
#
DISCID=bb0eab0e
DTITLE=odilon ramos - poesia presente
DYEAR=1900
DGENRE=gauchas
TTITLE0=o tobiano gaucho
TTITLE1=um gauderio no planeta atlantida
TTITLE2=guacho brasino
TTITLE3=bochincho no carnaval
TTITLE4=mateando com a mamae
TTITLE5=ave maria do peao
TTITLE6=o desvio da assis brasil
TTITLE7=a voz do pai
TTITLE8=rosita
TTITLE9=no adeus a jaime
TTITLE10=violacao
TTITLE11=que diacho eu gostava do meu cusco
TTITLE12=natal na campanha
TTITLE13=acao de gracas
EXTD=poemas gauchos - conheçam um pouco das nossas tradições.
EXTT0=
EXTT1=
EXTT2=
EXTT3=
EXTT4=
EXTT5=
EXTT6=
EXTT7=
EXTT8=
EXTT9=
EXTT10=
EXTT11=
EXTT12=
EXTT13=
PLAYORDER=
